<svg id="Layer_1" data-name="Layer 1" xmlns="http://www.w3.org/2000/svg" viewBox="0 0 850.47 407.76"><defs><style>.cls-1{fill:#b3622a;}</style></defs><path class="cls-1" d="M105.06,524.11Q71.79,489,71.78,424.27q0-42.52,14.61-73T127.44,305q26.43-15.72,61.19-15.72,21.08,0,42.53,12.2a85.18,85.18,0,0,1,16.27,11.84,68,68,0,0,1,12.94-15.16q6.66-4.8,7.39-5.18H277v70.26H262.22a109.05,109.05,0,0,0-14.42-32.17,81.28,81.28,0,0,0-22-23.3,51.05,51.05,0,0,0-30.13-9.24q-25.51,0-42.34,29.58t-16.83,96.14q0,67.67,18.31,96.7t50.1,29a61.53,61.53,0,0,0,33.1-9.8,76.88,76.88,0,0,0,25.51-26.07,65.59,65.59,0,0,0,9.8-34.38h9.25a73.84,73.84,0,0,1-11.28,39.38,83.32,83.32,0,0,1-30.69,29.21,86.48,86.48,0,0,1-43.08,10.91Q138.34,559.24,105.06,524.11Z" transform="translate(-71.78 -289.3)"/><path class="cls-1" d="M302.89,494.53q0-19.23,10-32.36a91.55,91.55,0,0,1,25.89-22.74A137.33,137.33,0,0,1,375,426.12l-20.34-29.58a132.3,132.3,0,0,1-13.5-24,65.82,65.82,0,0,1-5-25.88,50.55,50.55,0,0,1,8.69-28.84q8.68-12.94,25.88-20.71T412,289.3q19.61,0,37.72,12.2a81.37,81.37,0,0,1,14.05,11.84,68.21,68.21,0,0,1,12.94-15.16q6.66-4.8,7.4-5.18h9.24v70.26H478.53a146.18,146.18,0,0,0-13.68-32.17,94.32,94.32,0,0,0-19.78-23.48,39,39,0,0,0-25.7-9.06q-11.46,0-19.6,9.06t-8.13,24.22a50.51,50.51,0,0,0,6.65,24.4,241.5,241.5,0,0,0,16.27,25.52l65.82,92.44a143.32,143.32,0,0,0,6.29-13.68,93.62,93.62,0,0,0,6.65-34.39L463.74,415v-5.55h68.41V415l-29.58,11.09q0,18.5-8.14,39.93-4.43,10.36-7.76,17.38l41.78,59.17,18.49,5.54v5.55H495.17q-15.17,0-26.07-4.81T452.65,535.2A63.06,63.06,0,0,1,439,547.4,70.41,70.41,0,0,1,399,559.24Q302.88,559.24,302.89,494.53ZM435.64,538.9a70.77,70.77,0,0,0,11.46-11.09l-66.56-94.3a38.53,38.53,0,0,0-7.39,12.58q-7.41,16.64-7.4,48.44,0,26.63,11.65,41t29,14.42Q421.58,550,435.64,538.9Z" transform="translate(-71.78 -289.3)"/><path class="cls-1" d="M563.58,304.09l-20.34-3.69v-5.55h44.37q19.59,0,32.17,8.87a48,48,0,0,1,17.75,22.56l55.84,142.36,32.54-95.4-27.37-69.15-20.33-3.69v-5.55h44.37q19.59,0,31.8,8.69a52.27,52.27,0,0,1,18.12,22.74l55.83,142.36,53.25-157.15L853.85,300.4v-5.55h68.41v5.55l-29.59,11.09-83.19,245.9h-11.1l-66.56-169-57.31,169H663.42Z" transform="translate(-71.78 -289.3)"/><path class="cls-1" d="M126.52,663.08H93.46L86,683.73H75.3l30.14-78.91h9.1l30.19,78.91H134.05ZM96.6,654.57h26.83L110,617.67Z" transform="translate(-71.78 -289.3)"/><path class="cls-1" d="M262.62,683.73H252.16l-39.73-60.81v60.81H202V604.82h10.46l39.84,61.08V604.82h10.35Z" transform="translate(-71.78 -289.3)"/><path class="cls-1" d="M380.68,613.33H355.31v70.4H345v-70.4H319.65v-8.51h61Z" transform="translate(-71.78 -289.3)"/><path class="cls-1" d="M450.17,683.73H439.76V604.82h10.41Z" transform="translate(-71.78 -289.3)"/><path class="cls-1" d="M576.08,646.82q0,11.45-3.63,19.71a30.45,30.45,0,0,1-10.19,12.92l14.09,11.06-7.1,6.56-16.64-13.23a33.8,33.8,0,0,1-8.23,1,29.44,29.44,0,0,1-27.73-17.64,46.94,46.94,0,0,1-4.09-19.65v-5.69a48.21,48.21,0,0,1,4-20.11,29.25,29.25,0,0,1,27.75-18,30.54,30.54,0,0,1,16.77,4.6,29.68,29.68,0,0,1,11.14,13.25,48.75,48.75,0,0,1,3.9,20.19Zm-10.4-5.09q0-13.93-5.56-21.49t-15.85-7.56a18.36,18.36,0,0,0-15.48,7.5Q523.14,627.7,523,641v5.8q0,13.56,5.66,21.36t15.75,7.8q10.08,0,15.61-7.34t5.69-21.06Z" transform="translate(-71.78 -289.3)"/><path class="cls-1" d="M694.3,604.82v53.66q-.06,11.16-7,18.26t-18.89,8l-2.76.11q-13,0-20.65-7t-7.81-19.25V604.82h10.3v53.44q0,8.57,4.72,13.31t13.44,4.74q8.83,0,13.52-4.72t4.69-13.28V604.82Z" transform="translate(-71.78 -289.3)"/><path class="cls-1" d="M802,647.26h-34.2v28h39.73v8.51H757.34V604.82h49.59v8.51H767.75v25.42H802Z" transform="translate(-71.78 -289.3)"/><path class="cls-1" d="M890.3,648.56q-13.38-3.85-19.48-9.46a18,18,0,0,1-6.1-13.85,19.1,19.1,0,0,1,7.45-15.42q7.46-6.09,19.38-6.09a32.29,32.29,0,0,1,14.5,3.14,23.92,23.92,0,0,1,9.86,8.67,22.21,22.21,0,0,1,3.5,12.09H909q0-7.18-4.56-11.29t-12.84-4.1q-7.69,0-12,3.39a11.32,11.32,0,0,0-4.31,9.42,10.18,10.18,0,0,0,4.1,8.17q4.08,3.35,13.92,6.11a65,65,0,0,1,15.4,6.1,23.42,23.42,0,0,1,8.24,7.78,19.92,19.92,0,0,1,2.68,10.46A18.4,18.4,0,0,1,912.09,679q-7.49,5.78-20,5.78a37.09,37.09,0,0,1-15.18-3.12,25.55,25.55,0,0,1-10.86-8.53,20.85,20.85,0,0,1-3.82-12.31h10.46a13.59,13.59,0,0,0,5.28,11.3q5.28,4.15,14.12,4.15,8.24,0,12.63-3.36a10.93,10.93,0,0,0,4.39-9.16,10.71,10.71,0,0,0-4.07-9Q901,651.64,890.3,648.56Z" transform="translate(-71.78 -289.3)"/></svg>